<svg width="200" height="56" viewBox="0 0 469 76" fill="none" xmlns="http://www.w3.org/2000/svg">
<path d="M30.15 12.175L29.1 19.525H9.975V34H26.625V41.35H9.975V56.575H30.45V64H0.075V12.175H30.15ZM65.3455 12.175C73.3955 12.175 79.8205 14 84.6205 17.65C89.4705 21.3 91.8955 28.025 91.8955 37.825C91.8955 47.425 89.5205 54.2 84.7705 58.15C80.0205 62.05 73.9955 64 66.6955 64H52.5955V12.175H65.3455ZM62.4955 19.6V56.575H67.3705C71.7705 56.575 75.2205 55.225 77.7205 52.525C80.2205 49.775 81.4705 44.875 81.4705 37.825C81.4705 32.925 80.8205 29.15 79.5205 26.5C78.2705 23.8 76.5955 21.975 74.4955 21.025C72.4455 20.075 69.9705 19.6 67.0705 19.6H62.4955ZM151.778 47.05C151.778 50.55 151.028 53.675 149.528 56.425C148.078 59.125 145.878 61.25 142.928 62.8C140.028 64.35 136.528 65.125 132.428 65.125C126.228 65.125 121.478 63.5 118.178 60.25C114.878 56.95 113.228 52.55 113.228 47.05V12.175H123.128V46.525C123.128 50.175 123.878 52.9 125.378 54.7C126.928 56.5 129.278 57.4 132.428 57.4C135.628 57.4 137.978 56.5 139.478 54.7C141.028 52.9 141.803 50.175 141.803 46.525V12.175H151.778V47.05ZM202.665 64L199.44 52H182.265L179.04 64H168.765L184.89 12.175H197.115L213.165 64H202.665ZM184.215 44.5H197.415L190.815 19.75L184.215 44.5ZM247.89 43.225H241.59V64H231.69V12.175H247.14C260.84 12.175 267.69 17.25 267.69 27.4C267.69 30.85 266.84 33.7 265.14 35.95C263.44 38.2 260.79 40.025 257.19 41.425L270.765 64H259.365L247.89 43.225ZM241.59 36.1H247.74C250.89 36.1 253.265 35.425 254.865 34.075C256.515 32.675 257.34 30.45 257.34 27.4C257.34 24.6 256.49 22.575 254.79 21.325C253.14 20.025 250.515 19.375 246.915 19.375H241.59V36.1ZM303.04 12.175C311.09 12.175 317.515 14 322.315 17.65C327.165 21.3 329.59 28.025 329.59 37.825C329.59 47.425 327.215 54.2 322.465 58.15C317.715 62.05 311.69 64 304.39 64H290.29V12.175H303.04ZM300.19 19.6V56.575H305.065C309.465 56.575 312.915 55.225 315.415 52.525C317.915 49.775 319.165 44.875 319.165 37.825C319.165 32.925 318.515 29.15 317.215 26.5C315.965 23.8 314.29 21.975 312.19 21.025C310.14 20.075 307.665 19.6 304.765 19.6H300.19Z" fill="black"/>
<path d="M399.598 4.225C395.898 9.525 393.198 14.675 391.498 19.675C389.848 24.625 389.023 30.65 389.023 37.75C389.023 44.8 389.848 50.825 391.498 55.825C393.198 60.825 395.898 65.975 399.598 71.275L393.448 75.4C390.198 70.85 387.623 67 385.723 63.85C383.873 60.65 382.323 56.9 381.073 52.6C379.823 48.25 379.198 43.3 379.198 37.75C379.198 32.2 379.823 27.275 381.073 22.975C382.323 18.625 383.873 14.875 385.723 11.725C387.623 8.525 390.198 4.65 393.448 0.0999957L399.598 4.225ZM448.289 1.15C452.239 1.15 455.314 1.575 457.514 2.425C459.714 3.225 461.264 4.475 462.164 6.175C463.114 7.875 463.589 10.125 463.589 12.925V27.85C463.589 30.05 463.939 31.6 464.639 32.5C465.389 33.4 466.739 33.85 468.689 33.85V41.725C466.739 41.725 465.389 42.175 464.639 43.075C463.939 43.925 463.589 45.45 463.589 47.65V62.575C463.589 65.325 463.114 67.55 462.164 69.25C461.264 70.95 459.689 72.225 457.439 73.075C455.239 73.925 452.189 74.35 448.289 74.35V67.45C450.589 67.45 452.214 67.075 453.164 66.325C454.114 65.625 454.589 64.4 454.589 62.65V46.9C454.589 44.05 455.139 41.975 456.239 40.675C457.339 39.375 459.064 38.425 461.414 37.825C459.064 37.175 457.339 36.2 456.239 34.9C455.139 33.6 454.589 31.5 454.589 28.6V12.85C454.589 11.1 454.114 9.875 453.164 9.175C452.264 8.425 450.639 8.05 448.289 8.05V1.15Z" fill="#8844EE"/>
</svg>
